<svg xmlns="http://www.w3.org/2000/svg" viewBox="0 0 32 32" id="Book"><path d="M12 11H6a1 1 0 0 0 0 2h6a1 1 0 0 0 0-2zm0 4H6a1 1 0 0 0 0 2h6a1 1 0 0 0 0-2zm0 4H6a1 1 0 0 0 0 2h6a1 1 0 0 0 0-2z" fill="#028784" class="color000000 svgShape"></path><path d="M29 5h-9a5 5 0 0 0-4 2 5 5 0 0 0-4-2H3a2 2 0 0 0-2 2v18a2 2 0 0 0 2 2h12a2 2 0 0 0 1-.28 2 2 0 0 0 1 .28h12a2 2 0 0 0 2-2V7a2 2 0 0 0-2-2ZM3 25V7h9a3 3 0 0 1 3 3v15Zm26 0H17V10a3 3 0 0 1 3-3h9Z" fill="#028784" class="color000000 svgShape"></path><path d="M19 12a1 1 0 0 0 1 1h6a1 1 0 0 0 0-2h-6a1 1 0 0 0-1 1zm7 3h-6a1 1 0 0 0 0 2h6a1 1 0 0 0 0-2zm0 4h-6a1 1 0 0 0 0 2h6a1 1 0 0 0 0-2z" fill="#028784" class="color000000 svgShape"></path></svg>