<svg width="60" height="68" xmlns="http://www.w3.org/2000/svg" enable-background="new 0 0 512 512" viewBox="0 0 512 512" id="robotarm"><g fill="#000000" class="color000000 svgShape"><g fill="#000000" class="color000000 svgShape"><g fill="#000000" class="color000000 svgShape"><g fill="#000000" class="color000000 svgShape"><path fill="#ffffff" d="M431.022,230.958v20.081c0,5.498-4.453,9.961-9.961,9.961c-24.261,0-87.789,0-110.097,0
					c-5.498,0-9.961-4.462-9.961-9.961v-20.081c0-5.508,4.462-9.961,9.961-9.961c17.047,0,96.608,0,110.097,0
					C426.57,220.998,431.022,225.45,431.022,230.958z" class="colorffffff svgShape"></path><polygon fill="#ffffff" points="426.022 401.02 426.022 501.037 306.004 501.037 306.004 401.02 346.016 401.02 346.016 441.033 386.019 441.033 386.019 401.02" class="colorffffff svgShape"></polygon><path fill="#ffffff" d="M406.021,190.985v30.012h-80.006v-30.012c0-5.518,4.472-10.001,10.001-10.001
					c22.502,0,40.155,0,60.004,0C401.548,180.985,406.021,185.467,406.021,190.985z" class="colorffffff svgShape"></path><path fill="#cdf9f9" d="M366.018,25.964c24.852,0,45.003,20.151,45.003,45.003c0,17.671-10.18,32.97-25.002,40.332
					c-22.1,10.995-49.208,2.057-60.333-20.32c-6.217-12.538-6.247-27.415,0-40.013C333.057,36.144,348.337,25.964,366.018,25.964z" class="colorcddcf9 svgShape"></path><rect width="40.003" height="40.013" x="346.016" y="401.02" fill="#ffffff" class="colorffffff svgShape"></rect><path fill="#ffffff" d="M386.019 111.299v69.686h-40.003v-69.686C358.394 117.457 373.296 117.629 386.019 111.299zM222.581 50.966h103.105c-6.242 12.588-6.222 27.465 0 40.013H222.581C227.112 78.163 227.166 63.935 222.581 50.966zM251 470.916v30.122H80.978v-30.122c0-16.505 13.377-29.883 29.883-29.883 18.667 0 108.267 0 110.257 0C237.622 441.033 251 454.41 251 470.916z" class="colorffffff svgShape"></path><path fill="#cdf9f9" d="M222.581 50.966c-8.238-23.308-30.47-40.003-56.598-40.003-33.14 0-60.004 26.864-60.004 60.004 0 33.028 26.764 60.014 60.004 60.014 25.756 0 48.235-16.34 56.588-40.003h.01C227.111 78.163 227.166 63.935 222.581 50.966zM165.984 251c-41.277 0-75.005 33.431-75.005 75.015 0 41.306 33.473 75.005 75.005 75.005 41.194 0 75.015-33.381 75.015-75.005C240.999 284.539 207.341 251 165.984 251z" class="colorcddcf9 svgShape"></path><path fill="#ffffff" d="M220.998 376.995v64.038H110.98v-64.028C140.647 409.002 191.292 409.055 220.998 376.995zM200.996 259.666c-21.595-11.446-47.979-11.669-70.015-.01v-139.94c20.842 15.005 49.084 15.053 70.015 0C200.996 134.771 200.996 245.959 200.996 259.666zM165.984 291.002c19.334 0 35.012 15.678 35.012 35.012 0 19.324-15.678 35.002-35.012 35.002s-35.002-15.678-35.002-35.002C130.981 306.681 146.65 291.002 165.984 291.002zM165.984 50.966c11.047 0 20.001 8.955 20.001 20.001 0 11.057-8.955 20.011-20.001 20.011-11.047 0-20.001-8.955-20.001-20.011C145.982 59.92 154.937 50.966 165.984 50.966z" class="colorffffff svgShape"></path></g></g><g fill="#000000" class="color000000 svgShape"><g fill="#000000" class="color000000 svgShape"><path fill="#48c6c6" d="M250.999,510.998c-5.501,0-9.961-4.46-9.961-9.961V470.91c0-10.985-8.937-19.922-19.922-19.922
					h-110.26c-10.985,0-19.922,8.937-19.922,19.922v30.127c0,5.501-4.46,9.961-9.961,9.961s-9.961-4.46-9.961-9.961V470.91
					c0-21.969,17.874-39.843,39.843-39.843h110.26c21.969,0,39.843,17.874,39.843,39.843v30.127
					C260.96,506.538,256.5,510.998,250.999,510.998z" class="color487fe9 svgShape"></path></g><g fill="#000000" class="color000000 svgShape"><path fill="#48c6c6" d="M220.995,450.989c-5.501,0-9.961-4.46-9.961-9.961v-64.03c0-5.501,4.46-9.961,9.961-9.961
					c5.501,0,9.961,4.46,9.961,9.961v64.03C230.956,446.529,226.496,450.989,220.995,450.989z" class="color487fe9 svgShape"></path></g><g fill="#000000" class="color000000 svgShape"><path fill="#48c6c6" d="M110.978,450.989c-5.501,0-9.961-4.46-9.961-9.961v-64.03c0-5.501,4.46-9.961,9.961-9.961
					s9.961,4.46,9.961,9.961v64.03C120.939,446.529,116.479,450.989,110.978,450.989z" class="color487fe9 svgShape"></path></g><g fill="#000000" class="color000000 svgShape"><path fill="#48c6c6" d="M130.981,269.621c-5.501,0-9.961-4.46-9.961-9.961V119.719c0-5.501,4.46-9.961,9.961-9.961
					c5.501,0,9.961,4.46,9.961,9.961V259.66C140.942,265.161,136.482,269.621,130.981,269.621z" class="color487fe9 svgShape"></path></g><g fill="#000000" class="color000000 svgShape"><path fill="#48c6c6" d="M200.992,269.621c-5.501,0-9.961-4.46-9.961-9.961V119.719c0-5.501,4.46-9.961,9.961-9.961
					c5.501,0,9.961,4.46,9.961,9.961V259.66C210.952,265.161,206.492,269.621,200.992,269.621z" class="color487fe9 svgShape"></path></g><g fill="#000000" class="color000000 svgShape"><path fill="#48c6c6" d="M165.986,140.942c-38.582,0-69.97-31.388-69.97-69.97s31.388-69.97,69.97-69.97
					s69.97,31.388,69.97,69.97S204.568,140.942,165.986,140.942z M165.986,20.924c-27.597,0-50.048,22.452-50.048,50.048
					s22.452,50.048,50.048,50.048s50.048-22.452,50.048-50.048S193.583,20.924,165.986,20.924z" class="color487fe9 svgShape"></path></g><g fill="#000000" class="color000000 svgShape"><path fill="#48c6c6" d="M165.986,100.935c-16.522,0-29.964-13.441-29.964-29.963s13.442-29.964,29.964-29.964
					S195.95,54.45,195.95,70.972S182.508,100.935,165.986,100.935z M165.986,60.93c-5.538,0-10.043,4.505-10.043,10.043
					c0,5.537,4.505,10.042,10.043,10.042c5.537,0,10.042-4.505,10.042-10.042C176.028,65.434,171.523,60.93,165.986,60.93z" class="color487fe9 svgShape"></path></g><g fill="#000000" class="color000000 svgShape"><path fill="#48c6c6" d="M325.691,60.93H222.575c-5.501,0-9.961-4.46-9.961-9.961s4.46-9.961,9.961-9.961h103.116
					c5.501,0,9.961,4.46,9.961,9.961S331.192,60.93,325.691,60.93z" class="color487fe9 svgShape"></path></g><g fill="#000000" class="color000000 svgShape"><path fill="#48c6c6" d="M325.691,100.935H222.575c-5.501,0-9.961-4.46-9.961-9.961s4.46-9.961,9.961-9.961h103.116
					c5.501,0,9.961,4.46,9.961,9.961S331.192,100.935,325.691,100.935z" class="color487fe9 svgShape"></path></g><g fill="#000000" class="color000000 svgShape"><path fill="#48c6c6" d="M366.017,125.94c-30.31,0-54.968-24.658-54.968-54.968s24.658-54.968,54.968-54.968
					c30.31,0,54.968,24.658,54.968,54.968S396.327,125.94,366.017,125.94z M366.017,35.926c-19.324,0-35.046,15.721-35.046,35.046
					s15.721,35.046,35.046,35.046s35.046-15.721,35.046-35.046S385.341,35.926,366.017,35.926z" class="color487fe9 svgShape"></path></g><g fill="#000000" class="color000000 svgShape"><path fill="#48c6c6" d="M346.014,190.95c-5.501,0-9.961-4.46-9.961-9.961v-69.691c0-5.501,4.46-9.961,9.961-9.961
					c5.501,0,9.961,4.46,9.961,9.961v69.691C355.974,186.49,351.514,190.95,346.014,190.95z" class="color487fe9 svgShape"></path></g><g fill="#000000" class="color000000 svgShape"><path fill="#48c6c6" d="M386.019,190.95c-5.501,0-9.961-4.46-9.961-9.961v-69.691c0-5.501,4.46-9.961,9.961-9.961
					s9.961,4.46,9.961,9.961v69.691C395.98,186.49,391.52,190.95,386.019,190.95z" class="color487fe9 svgShape"></path></g><g fill="#000000" class="color000000 svgShape"><path fill="#48c6c6" d="M441.028,360.975c-5.501,0-9.961-4.46-9.961-9.961v-44.442L373.2,270.962h-14.365l-57.868,35.611
					v44.442c0,5.501-4.46,9.961-9.961,9.961s-9.961-4.46-9.961-9.961v-50.008c0-3.459,1.795-6.67,4.74-8.483l65.01-40.006
					c1.57-0.966,3.377-1.478,5.221-1.478h20.003c1.843,0,3.651,0.512,5.221,1.478l65.009,40.006c2.945,1.813,4.74,5.024,4.74,8.483
					v50.008C450.989,356.515,446.529,360.975,441.028,360.975z" class="color487fe9 svgShape"></path></g><g fill="#000000" class="color000000 svgShape"><path fill="#48c6c6" d="M426.026,510.998H306.008c-5.501,0-9.961-4.46-9.961-9.961V401.022
					c0-5.501,4.46-9.961,9.961-9.961h120.019c5.501,0,9.961,4.46,9.961,9.961v100.015
					C435.987,506.538,431.527,510.998,426.026,510.998z M315.968,491.076h100.097v-80.093H315.968V491.076z" class="color487fe9 svgShape"></path></g><g fill="#000000" class="color000000 svgShape"><path fill="#48c6c6" d="M386.019,450.989h-40.006c-5.501,0-9.961-4.46-9.961-9.961v-40.006
					c0-5.501,4.46-9.961,9.961-9.961c5.501,0,9.961,4.46,9.961,9.961v30.045h20.084v-30.045c0-5.501,4.46-9.961,9.961-9.961
					s9.961,4.46,9.961,9.961v40.006C395.98,446.529,391.52,450.989,386.019,450.989z" class="color487fe9 svgShape"></path></g><g fill="#000000" class="color000000 svgShape"><path fill="#48c6c6" d="M501.037,510.998H10.963c-5.501,0-9.961-4.46-9.961-9.961s4.46-9.961,9.961-9.961h490.074
					c5.501,0,9.961,4.46,9.961,9.961S506.538,510.998,501.037,510.998z" class="color487fe9 svgShape"></path></g><g fill="#000000" class="color000000 svgShape"><path fill="#48c6c6" d="M165.986,410.983c-46.854,0-84.973-38.118-84.973-84.972s38.119-84.973,84.973-84.973
					s84.972,38.119,84.972,84.973S212.84,410.983,165.986,410.983z M165.986,260.96c-35.869,0-65.051,29.182-65.051,65.051
					s29.182,65.05,65.051,65.05s65.05-29.181,65.05-65.05S201.855,260.96,165.986,260.96z" class="color487fe9 svgShape"></path></g><g fill="#000000" class="color000000 svgShape"><path fill="#48c6c6" d="M165.986,370.977c-24.794,0-44.966-20.172-44.966-44.966c0-24.795,20.172-44.967,44.966-44.967
					s44.966,20.172,44.966,44.967C210.952,350.805,190.781,370.977,165.986,370.977z M165.986,300.966
					c-13.809,0-25.044,11.235-25.044,25.045c0,13.809,11.235,25.044,25.044,25.044s25.044-11.235,25.044-25.044
					C191.031,312.201,179.796,300.966,165.986,300.966z" class="color487fe9 svgShape"></path></g><g fill="#000000" class="color000000 svgShape"><path fill="#48c6c6" d="M421.065,270.962H310.968c-10.985,0-19.922-8.937-19.922-19.922v-20.084
					c0-10.985,8.937-19.922,19.922-19.922h110.098c10.985,0,19.922,8.937,19.922,19.922v20.084
					C440.987,262.025,432.05,270.962,421.065,270.962z M310.968,230.956v20.084c4.738,0-26.082,0,110.11-0.001l-0.013-20.083
					H310.968z" class="color487fe9 svgShape"></path></g><g fill="#000000" class="color000000 svgShape"><path fill="#48c6c6" d="M406.023,230.956c-5.501,0-9.961-4.46-9.961-9.961V190.99l-60.05-0.04l-0.04,30.045
					c0,5.501-4.46,9.961-9.961,9.961s-9.961-4.46-9.961-9.961V190.99c0-11.007,8.955-19.962,19.962-19.962h60.009
					c11.008,0,19.963,8.955,19.963,19.962v30.005C415.984,226.496,411.524,230.956,406.023,230.956z" class="color487fe9 svgShape"></path></g></g></g></g></svg>